<?xml version="1.0" standalone="no"?>
<!DOCTYPE svg PUBLIC "-//W3C//DTD SVG 20010904//EN"
 "http://www.w3.org/TR/2001/REC-SVG-20010904/DTD/svg10.dtd">
<svg version="1.0" xmlns="http://www.w3.org/2000/svg"
 width="700.000000pt" height="700.000000pt" viewBox="0 0 700.000000 700.000000"
 preserveAspectRatio="xMidYMid meet">
<metadata>
Created by potrace 1.11, written by Peter Selinger 2001-2013
</metadata>
<g transform="translate(0.000000,700.000000) scale(0.100000,-0.100000)"
fill="#000000" stroke="none">
<path d="M3784 6784 c-203 -119 -412 -240 -464 -270 -100 -58 -103 -60 -187
-111 -30 -18 -55 -33 -58 -33 -3 0 -42 -22 -87 -49 -80 -48 -1143 -667 -1203
-701 l-30 -17 -3 -295 -2 -296 -93 -58 c-50 -31 -274 -170 -497 -307 -223
-137 -427 -264 -455 -282 -27 -17 -97 -60 -155 -95 -58 -36 -107 -67 -110 -71
-4 -5 -5 -2629 -1 -2699 1 -13 43 -44 116 -85 38 -22 180 -110 185 -115 3 -3
16 -11 30 -19 14 -8 59 -35 100 -61 235 -145 581 -359 757 -469 112 -69 211
-131 220 -136 10 -6 109 -66 221 -135 111 -69 213 -132 227 -140 147 -90 424
-263 478 -297 l68 -44 86 53 c47 29 101 62 120 73 63 38 838 518 888 550 28
17 102 64 165 102 63 39 201 123 305 188 105 65 202 125 217 134 15 9 162 99
327 201 l300 185 1 252 0 251 48 30 c26 16 286 177 577 357 292 181 539 333
550 339 11 6 46 28 78 49 46 30 57 42 58 64 0 16 1 642 2 1392 2 1201 0 1367
-13 1382 -12 14 -273 169 -500 297 -24 14 -84 49 -133 78 -49 30 -91 54 -93
54 -3 0 -83 47 -154 90 -22 13 -227 132 -269 155 -20 11 -79 46 -131 76 -52
31 -111 66 -130 76 -19 11 -199 116 -400 233 -201 117 -378 221 -395 230 -16
10 -54 31 -83 48 -117 70 -60 88 -478 -154z m-1884 -4077 c80 -49 204 -125
275 -169 72 -44 146 -90 165 -103 44 -28 744 -461 785 -485 17 -10 140 -86
275 -170 235 -146 395 -245 452 -279 15 -9 84 -51 153 -94 113 -71 125 -80
108 -91 -10 -7 -187 -118 -393 -246 -206 -128 -486 -302 -622 -387 -135 -84
-249 -153 -254 -153 -4 0 -121 71 -260 157 -139 87 -262 162 -274 168 -11 5
-20 13 -20 17 0 5 -4 8 -9 8 -5 0 -179 106 -387 236 -209 130 -391 244 -406
253 -46 27 -280 172 -333 206 -27 18 -102 64 -165 103 l-115 71 0 1090 c0 788
3 1093 11 1101 6 6 202 130 435 275 l424 264 5 -841 5 -841 145 -90z"/>
</g>
</svg>
